<svg width="800" height="240" viewBox="0 0 800 240" fill="none" xmlns="http://www.w3.org/2000/svg">
  <rect width="800" height="240" rx="24" fill="#F8FAFC"/>
  <rect x="24" y="32" width="752" height="176" rx="20" fill="#FFFFFF"/>
  <g font-family="Verdana, Arial, sans-serif" font-size="13" fill="#0F172A">
    <rect x="60" y="80" width="120" height="80" rx="14" fill="#DBEAFE"/>
    <text x="120" y="112" text-anchor="middle">Apply</text>
    <text x="120" y="132" text-anchor="middle" font-size="11" fill="#334155">Interest form</text>

    <rect x="210" y="64" width="120" height="112" rx="14" fill="#E0E7FF"/>
    <text x="270" y="108" text-anchor="middle">Screen</text>
    <text x="270" y="128" text-anchor="middle" font-size="11" fill="#334155">Shortlist</text>

    <rect x="360" y="48" width="120" height="144" rx="14" fill="#FDE68A"/>
    <text x="420" y="108" text-anchor="middle">Interview</text>
    <text x="420" y="128" text-anchor="middle" font-size="11" fill="#334155">Scorecards</text>

    <rect x="510" y="64" width="120" height="112" rx="14" fill="#FBCFE8"/>
    <text x="570" y="108" text-anchor="middle">Offer</text>
    <text x="570" y="128" text-anchor="middle" font-size="11" fill="#334155">Contract</text>

    <rect x="660" y="80" width="100" height="80" rx="14" fill="#E2E8F0"/>
    <text x="710" y="112" text-anchor="middle">Hired</text>
    <text x="710" y="132" text-anchor="middle" font-size="11" fill="#334155">Onboard</text>
  </g>
  <g stroke="#94A3B8" stroke-width="2" stroke-linecap="round">
    <line x1="180" y1="120" x2="210" y2="120"/>
    <line x1="330" y1="120" x2="360" y2="120"/>
    <line x1="480" y1="120" x2="510" y2="120"/>
    <line x1="630" y1="120" x2="660" y2="120"/>
  </g>
  <g font-family="Verdana, Arial, sans-serif" font-size="12" fill="#6B7280">
    <text x="64" y="66">Hiring pipeline overview</text>
    <text x="64" y="192">You can edit stages in Settings > Hiring > Hiring Flows.</text>
  </g>
</svg>
